<svg width="50" height="50" viewBox="0 0 50 50" fill="none" xmlns="http://www.w3.org/2000/svg">
<rect x="0.5" y="0.5" width="49" height="49" rx="24.5" stroke="#2D1312"/>
<path fill-rule="evenodd" clip-rule="evenodd" d="M29.8407 21.1953C30.1411 20.9349 30.6281 20.9349 30.9285 21.1953L34.7747 24.5286C34.8485 24.5925 34.9041 24.6662 34.9416 24.7448C34.9745 24.8134 34.9944 24.8878 34.999 24.9657C34.9997 24.9771 35 24.9885 35 25C35 25.0904 34.9792 25.1766 34.9416 25.2552C34.9041 25.3338 34.8485 25.4075 34.7747 25.4714L30.9285 28.8047C30.6281 29.0651 30.1411 29.0651 29.8407 28.8047C29.5403 28.5444 29.5403 28.1223 29.8407 27.8619L32.3737 25.6667H15.7692C15.3444 25.6667 15 25.3682 15 25C15 24.6318 15.3444 24.3333 15.7692 24.3333H32.3737L29.8407 22.1381C29.5403 21.8777 29.5403 21.4556 29.8407 21.1953Z" fill="#2D1312"/>
</svg>
