<svg width="40" height="40" viewBox="0 0 40 40" fill="none" xmlns="http://www.w3.org/2000/svg">
<path d="M20.0007 3.33301C24.529 3.33301 25.094 3.34967 26.8706 3.43301C28.6457 3.51634 29.854 3.79467 30.9173 4.20801C32.0173 4.63134 32.944 5.20467 33.8707 6.12967C34.7181 6.96283 35.3739 7.97066 35.7923 9.08301C36.204 10.1447 36.484 11.3547 36.5673 13.1297C36.6457 14.9063 36.6673 15.4713 36.6673 19.9997C36.6673 24.528 36.6507 25.093 36.5673 26.8697C36.484 28.6447 36.204 29.853 35.7923 30.9163C35.3751 32.0293 34.7192 33.0374 33.8707 33.8697C33.0373 34.7169 32.0295 35.3726 30.9173 35.7913C29.8556 36.203 28.6457 36.483 26.8706 36.5663C25.094 36.6447 24.529 36.6663 20.0007 36.6663C15.4723 36.6663 14.9073 36.6497 13.1307 36.5663C11.3556 36.483 10.1473 36.203 9.08398 35.7913C7.97119 35.3738 6.9632 34.7179 6.13065 33.8697C5.28299 33.0367 4.6272 32.0288 4.20898 30.9163C3.79565 29.8547 3.51732 28.6447 3.43398 26.8697C3.35565 25.093 3.33398 24.528 3.33398 19.9997C3.33398 15.4713 3.35065 14.9063 3.43398 13.1297C3.51732 11.353 3.79565 10.1463 4.20898 9.08301C4.62604 7.96997 5.28199 6.96188 6.13065 6.12967C6.96344 5.28173 7.97136 4.62589 9.08398 4.20801C10.1473 3.79467 11.354 3.51634 13.1307 3.43301C14.9073 3.35467 15.4723 3.33301 20.0007 3.33301ZM20.0007 11.6663C17.7905 11.6663 15.6709 12.5443 14.1081 14.1071C12.5453 15.6699 11.6673 17.7895 11.6673 19.9997C11.6673 22.2098 12.5453 24.3294 14.1081 25.8922C15.6709 27.455 17.7905 28.333 20.0007 28.333C22.2108 28.333 24.3304 27.455 25.8932 25.8922C27.456 24.3294 28.334 22.2098 28.334 19.9997C28.334 17.7895 27.456 15.6699 25.8932 14.1071C24.3304 12.5443 22.2108 11.6663 20.0007 11.6663ZM30.834 11.2497C30.834 10.6971 30.6145 10.1672 30.2238 9.77654C29.8331 9.38583 29.3032 9.16634 28.7507 9.16634C28.1981 9.16634 27.6682 9.38583 27.2775 9.77654C26.8868 10.1672 26.6673 10.6971 26.6673 11.2497C26.6673 11.8022 26.8868 12.3321 27.2775 12.7228C27.6682 13.1135 28.1981 13.333 28.7507 13.333C29.3032 13.333 29.8331 13.1135 30.2238 12.7228C30.6145 12.3321 30.834 11.8022 30.834 11.2497ZM20.0007 14.9997C21.3267 14.9997 22.5985 15.5265 23.5362 16.4641C24.4739 17.4018 25.0007 18.6736 25.0007 19.9997C25.0007 21.3258 24.4739 22.5975 23.5362 23.5352C22.5985 24.4729 21.3267 24.9997 20.0007 24.9997C18.6746 24.9997 17.4028 24.4729 16.4651 23.5352C15.5274 22.5975 15.0007 21.3258 15.0007 19.9997C15.0007 18.6736 15.5274 17.4018 16.4651 16.4641C17.4028 15.5265 18.6746 14.9997 20.0007 14.9997Z" fill="#36392D"/>
</svg>
