<svg width="40" height="40" viewBox="0 0 40 40" fill="none" xmlns="http://www.w3.org/2000/svg">
<path d="M36.6673 10.0003C35.4404 10.5837 34.1179 10.967 32.7476 11.1503C34.1498 10.267 35.2333 8.86699 35.7432 7.18366C34.4207 8.01699 32.9548 8.60033 31.4092 8.93366C30.1504 7.50033 28.3818 6.66699 26.3741 6.66699C22.6297 6.66699 19.5704 9.86699 19.5704 13.817C19.5704 14.3837 19.6342 14.9337 19.7457 15.4503C14.0733 15.1503 9.02232 12.3003 5.66031 7.98366C5.07076 9.03366 4.73615 10.267 4.73615 11.567C4.73615 14.0503 5.93118 16.2503 7.77949 17.5003C6.6482 17.5003 5.59657 17.167 4.67242 16.667V16.717C4.67242 20.1837 7.03061 23.0837 10.1536 23.7337C9.15095 24.0207 8.09832 24.0606 7.07841 23.8503C7.51118 25.2711 8.35874 26.5143 9.50195 27.4052C10.6452 28.2961 12.0265 28.7898 13.4519 28.817C11.0358 30.8177 8.0408 31.8992 4.95922 31.8837C4.41748 31.8837 3.87573 31.8503 3.33398 31.7837C6.36139 33.817 9.96241 35.0003 13.8184 35.0003C26.3741 35.0003 33.2734 24.1003 33.2734 14.6503C33.2734 14.3337 33.2734 14.0337 33.2575 13.717C34.5959 12.717 35.7432 11.4503 36.6673 10.0003Z" fill="#36392D"/>
</svg>
